<svg xmlns="http://www.w3.org/2000/svg" width="900" height="900"><path fill="#f38f41" d="M207 200h486a13 13 0 0 1 13 13v28a13 13 0 0 1-13 12H207a13 13 0 0 1-13-12v-28a13 13 0 0 1 13-13Zm97 294h284a24 24 0 0 1 18 8 24 24 0 0 1 7 17v110a24 24 0 0 1-7 17h-1a24 24 0 0 1-17 7H304a24 24 0 0 1-17-7 24 24 0 0 1-7-17V519a24 24 0 0 1 7-17l1-1a24 24 0 0 1 16-7Zm232 61a6 6 0 0 0-12 0v11c0 5-3 10-7 13a33 33 0 0 1-20 7h-94a33 33 0 0 1-20-7c-4-3-7-8-7-13v-11a6 6 0 0 0-12 0v11c0 9 4 17 12 23a45 45 0 0 0 27 9h94a45 45 0 0 0 27-9c8-6 12-14 12-23v-11ZM304 296h284a24 24 0 0 1 18 7 24 24 0 0 1 7 17v110a24 24 0 0 1-7 17h-1a24 24 0 0 1-17 7H304a24 24 0 0 1-17-7v-1a24 24 0 0 1-7-16V320a24 24 0 0 1 7-17l1-1a24 24 0 0 1 16-6Zm232 61a6 6 0 0 0-12 0v10c0 5-3 10-7 14a33 33 0 0 1-20 6h-94a33 33 0 0 1-20-6c-4-4-7-9-7-14v-10a6 6 0 0 0-12 0v10c0 9 4 17 12 23a45 45 0 0 0 27 9h94a45 45 0 0 0 27-9c8-6 12-14 12-23v-10Zm-323-94v431a6 6 0 0 0 6 6h457a6 6 0 0 0 6-6V263H213Zm391 225 2-1 7 7a34 34 0 0 1 10 25v110a34 34 0 0 1-10 24h-1a35 35 0 0 1-24 10H304a34 34 0 0 1-16-4l-1 1-7-7a34 34 0 0 1-10-24V519a34 34 0 0 1 10-25h1a35 35 0 0 1 23-10h284a34 34 0 0 1 16 4Zm1-198 1-1 7 7a35 35 0 0 1 10 24v110a34 34 0 0 1-35 34H304a34 34 0 0 1-16-4h-1l-7-6v-1a35 35 0 0 1-10-23V320a34 34 0 0 1 5-17l-1-1 6-6 1-1a35 35 0 0 1 23-9h284a34 34 0 0 1 17 4Z" data-name="Path 29"/><path fill="#f38f41" fill-rule="evenodd" d="M174 0h552c96 0 174 78 174 174v552c0 96-78 174-174 174H174C78 900 0 822 0 726V174C0 78 78 0 174 0Zm47 77h458c79 0 144 65 144 144v458c0 79-65 144-144 144H221c-79 0-144-65-144-144V221c0-79 65-144 144-144Z" data-name="Path 30"/></svg>