<svg xmlns="http://www.w3.org/2000/svg" xml:space="preserve" width="163.8" height="163.8" style="shape-rendering:geometricPrecision;text-rendering:geometricPrecision;image-rendering:optimizeQuality;fill-rule:evenodd;clip-rule:evenodd" viewBox="0 0 1707 1707"><defs><style>.str0{stroke:#000;stroke-width:46.6654;stroke-linecap:round;stroke-linejoin:round}.fil0{fill:none}</style></defs><g id="Layer_x0020_1"><g id="_578733696"><path d="M262 846h1184v741H262z" class="fil0 str0"/><path d="M360 944h987v544H360zM1321 1587h124v97h-124zM262 1587h124v97H262zM262 552h1184v294H262zM747 699h212M501 1122v188M434 462h266v90H434zM524 248h86v214h-86zM365 248h404L671 23H464zM949 209h267v343H949zM1216 294h63c34 0 62 28 62 63v47c0 35-28 63-62 63h-63V294z" class="fil0 str0"/></g></g></svg>