<svg xmlns="http://www.w3.org/2000/svg" xml:space="preserve" width="163.8" height="163.8" style="shape-rendering:geometricPrecision;text-rendering:geometricPrecision;image-rendering:optimizeQuality;fill-rule:evenodd;clip-rule:evenodd" viewBox="0 0 1707 1707"><defs><style>.fil0{fill:#000}</style></defs><g id="Layer_x0020_1"><g id="_336312952"><path d="M1436 1235H854c-14 0-25-11-25-25s11-25 25-25h557V74c0-12-15-25-35-25H854c-14 0-25-11-25-25s11-25 25-25h522c46 0 83 34 83 74v1136c0 15-11 26-23 26z" class="fil0"/><path d="M854 1235c-14 0-25-11-25-25V48H332c-18 0-35 17-35 35v1127c0 14-11 25-25 25s-25-11-25-25V83c0-46 38-84 84-84h522c14 0 25 11 25 25v1186c0 14-11 25-24 25z" class="fil0"/><path d="M1436 1588H271c-14 0-25-11-25-25v-351c0-14 11-25 25-25h1165c14 0 25 11 25 25v352c0 14-11 24-25 24zm-1142-49h1117v-304H294v304z" class="fil0"/><path d="M532 1707H392c-21 0-39-16-39-39v-105c0-14 11-25 25-25s25 11 25 25v96h119v-96c0-14 11-25 25-25s25 11 25 25v105c-3 21-19 39-40 39zM1316 1707h-140c-21 0-39-18-39-39v-105c0-14 11-25 25-25s25 11 25 25v96h120v-96c0-14 11-25 25-25s25 11 25 25v105c-3 21-20 39-41 39zM944 1442H764c-38 0-50-18-50-35v-51c0-14 11-25 25-25s25 11 25 25v38h183v-38c0-14 11-25 25-25s25 11 25 25v51c-3 18-15 35-53 35zM725 752c-14 0-25-11-25-25V506c0-14 11-25 25-25s25 11 25 25v221c0 14-11 25-25 25zM982 752c-14 0-25-11-25-25V506c0-14 11-25 25-25s25 11 25 25v221c0 14-11 25-25 25z" class="fil0"/></g></g></svg>